<svg width="11" height="12" viewBox="0 0 11 12" fill="none" xmlns="http://www.w3.org/2000/svg">
    <path d="M5.17413 4.6C4.99813 4.6 4.84879 4.544 4.72613 4.432C4.60346 4.32 4.54213 4.17867 4.54213 4.008C4.54213 3.832 4.60346 3.69067 4.72613 3.584C4.84879 3.472 4.99813 3.416 5.17413 3.416C5.35013 3.416 5.49946 3.472 5.62213 3.584C5.74479 3.69067 5.80613 3.832 5.80613 4.008C5.80613 4.17867 5.74479 4.32 5.62213 4.432C5.49946 4.544 5.35013 4.6 5.17413 4.6ZM4.25413 9V8.848L4.37413 8.816C4.48079 8.784 4.55279 8.736 4.59013 8.672C4.62746 8.608 4.64879 8.52267 4.65413 8.416V6.944C4.65413 6.77867 4.65413 6.62667 4.65413 6.488C4.65413 6.344 4.65146 6.19733 4.64613 6.048C4.64613 5.94133 4.62479 5.85867 4.58213 5.8C4.54479 5.736 4.47279 5.69333 4.36613 5.672L4.25413 5.648V5.504L5.65413 5.04L5.75013 5.128L5.72613 6.264V8.424C5.72613 8.53067 5.74479 8.616 5.78213 8.68C5.82479 8.744 5.89679 8.792 5.99813 8.824L6.08613 8.848V9H4.25413Z" fill="black"/>
    <circle cx="5.23077" cy="6.0003" r="4.73077" stroke="black"/>
</svg>
